# Blender 4.3.2
# www.blender.org
mtllib Pino.mtl
o Firtree_3
v 0.089629 -0.225327 0.084847
v 0.003659 -0.225327 0.120454
v 0.003659 -0.225327 -0.001114
v 0.089629 1.272922 0.084847
v 0.003659 1.272922 0.120454
v 0.003659 1.272922 -0.001114
v 0.125233 -0.225327 -0.001114
v 0.125233 1.272922 -0.001114
v 0.089629 -0.225327 -0.087077
v 0.089629 1.272922 -0.087077
v 0.003659 -0.225327 -0.122689
v 0.003659 1.272922 -0.122689
v -0.082302 -0.225327 -0.087077
v -0.082302 1.272922 -0.087077
v -0.117909 -0.225327 -0.001114
v -0.117909 1.272922 -0.001114
v -0.082302 -0.225327 0.084847
v -0.082302 1.272922 0.084847
v -0.584308 0.975676 -0.583164
v -0.000885 0.975676 -0.824819
v -0.000885 0.460427 -1.181804
v -0.212157 1.917258 -0.211011
v -0.000885 1.917258 -0.298521
v -0.000885 2.858847 0.000259
v 0.582532 0.975676 0.583682
v -0.000885 0.975676 0.825337
v -0.000885 0.460427 1.182325
v 0.210378 1.917258 0.211531
v -0.000885 1.917258 0.299039
v -0.825972 0.975676 0.000259
v -0.836735 0.460427 -0.835581
v -0.299665 1.917258 0.000259
v 0.824193 0.975676 0.000259
v 0.834956 0.460427 0.836102
v 0.297886 1.917258 0.000259
v -0.584308 0.975676 0.583682
v -1.182950 0.460427 0.000259
v -0.212157 1.917258 0.211531
v 0.582532 0.975676 -0.583164
v 1.181171 0.460427 0.000259
v 0.210378 1.917258 -0.211011
v -0.836735 0.460427 0.836102
v 0.834956 0.460427 -0.835581
v -0.434116 1.846025 -0.432963
v -0.000885 1.846025 -0.612412
v -0.000885 1.463416 -0.877497
v -0.157771 2.545210 -0.156620
v -0.000885 2.545210 -0.221601
v -0.000885 3.244394 0.000259
v 0.432337 1.846025 0.433483
v -0.000885 1.846025 0.612933
v -0.000885 1.463416 0.878017
v 0.155994 2.545210 0.157138
v -0.000885 2.545210 0.222122
v -0.613558 1.846025 0.000259
v -0.621552 1.463416 -0.620406
v -0.222747 2.545210 0.000259
v 0.611780 1.846025 0.000259
v 0.619780 1.463416 0.620926
v 0.220975 2.545210 0.000259
v -0.434116 1.846025 0.433483
v -0.878641 1.463416 0.000259
v -0.157771 2.545210 0.157138
v 0.432337 1.846025 -0.432963
v 0.876864 1.463416 0.000259
v 0.155994 2.545210 -0.156620
v -0.621552 1.463416 0.620926
v 0.619780 1.463416 -0.620406
v -0.499961 1.440500 -0.498815
v -0.000885 1.440500 -0.705541
v -0.000885 0.999734 -1.010916
v -0.181614 2.245958 -0.180467
v -0.000885 2.245958 -0.255322
v -0.000885 3.051413 0.000259
v 0.498191 1.440500 0.499335
v -0.000885 1.440500 0.706062
v -0.000885 0.999734 1.011437
v 0.179835 2.245958 0.180988
v -0.000885 2.245958 0.255842
v -0.706687 1.440500 0.000259
v -0.715896 0.999734 -0.714752
v -0.256475 2.245958 0.000259
v 0.704909 1.440500 0.000259
v 0.714119 0.999734 0.715270
v 0.254696 2.245958 0.000259
v -0.499961 1.440500 0.499335
v -1.012063 0.999734 0.000259
v -0.181614 2.245958 0.180988
v 0.498191 1.440500 -0.498815
v 1.010284 0.999734 0.000259
v 0.179835 2.245958 -0.180467
v -0.715896 0.999734 0.715270
v 0.714119 0.999734 -0.714752
vn -0.0000 -1.0000 -0.0000
vn 0.3827 -0.0000 0.9239
vn -0.0000 1.0000 -0.0000
vn 0.9239 -0.0000 0.3827
vn 0.9239 -0.0000 -0.3827
vn 0.3827 -0.0000 -0.9239
vn -0.3828 -0.0000 -0.9238
vn -0.3827 -0.0000 -0.9239
vn -0.9239 -0.0000 -0.3827
vn -0.9239 -0.0000 0.3827
vn -0.3827 -0.0000 0.9239
vn -0.3223 0.5391 -0.7781
vn -0.3400 0.4588 -0.8209
vn -0.3672 0.2813 -0.8866
vn 0.3223 0.5391 0.7781
vn 0.3400 0.4588 0.8209
vn 0.3672 0.2813 0.8866
vn -0.7781 0.5391 -0.3223
vn -0.8209 0.4588 -0.3400
vn -0.8866 0.2813 -0.3672
vn 0.7781 0.5391 0.3223
vn 0.8209 0.4588 0.3400
vn 0.8866 0.2813 0.3672
vn -0.7781 0.5391 0.3223
vn -0.8209 0.4588 0.3400
vn -0.8866 0.2813 0.3672
vn 0.7781 0.5391 -0.3223
vn 0.8209 0.4588 -0.3400
vn 0.8866 0.2813 -0.3672
vn -0.3223 0.5391 0.7781
vn -0.3400 0.4588 0.8209
vn -0.3672 0.2813 0.8866
vn 0.3223 0.5391 -0.7781
vn 0.3400 0.4588 -0.8209
vn 0.3672 0.2813 -0.8866
vt 0.691900 0.145500
vt 0.692100 0.146000
vt 0.691400 0.146000
vt 0.687900 0.144000
vt 0.688200 0.144000
vt 0.688200 0.145700
vt 0.690900 0.145500
vt 0.690700 0.146000
vt 0.691400 0.145300
vt 0.687700 0.144000
vt 0.687900 0.145700
vt 0.687500 0.144000
vt 0.687700 0.145700
vt 0.687300 0.144000
vt 0.687500 0.145700
vt 0.690900 0.146500
vt 0.687100 0.144000
vt 0.687300 0.145700
vt 0.691900 0.146500
vt 0.691400 0.146700
vt 0.686900 0.144000
vt 0.687100 0.145700
vt 0.686700 0.144000
vt 0.686900 0.145700
vt 0.686500 0.144000
vt 0.686700 0.145700
vt 0.937900 0.574700
vt 0.935400 0.574700
vt 0.935400 0.568000
vt 0.937900 0.581400
vt 0.935400 0.581400
vt 0.937900 0.588100
vt 0.927900 0.574700
vt 0.925300 0.574700
vt 0.925300 0.568000
vt 0.927900 0.581400
vt 0.925300 0.581400
vt 0.927900 0.588100
vt 0.940500 0.574700
vt 0.937900 0.568000
vt 0.940500 0.581400
vt 0.940500 0.588100
vt 0.930400 0.574700
vt 0.927900 0.568000
vt 0.930400 0.581400
vt 0.930400 0.588100
vt 0.943000 0.574700
vt 0.940500 0.568000
vt 0.943000 0.581400
vt 0.943000 0.588100
vt 0.932900 0.574700
vt 0.930400 0.568000
vt 0.932900 0.581400
vt 0.932900 0.588100
vt 0.945500 0.574700
vt 0.943000 0.568000
vt 0.945500 0.581400
vt 0.945500 0.588100
vt 0.932900 0.568000
vt 0.935400 0.588100
vt 0.686500 0.145700
vt 0.945500 0.568000
s 1
usemtl World_ap
f 1/1/1 2/2/1 3/3/1
f 4/4/2 5/5/2 2/6/2
f 4/7/3 6/3/3 5/8/3
f 7/9/1 1/1/1 3/3/1
f 8/10/4 4/4/4 1/11/4
f 8/9/3 6/3/3 4/7/3
f 9/7/1 7/9/1 3/3/1
f 10/12/5 8/10/5 7/13/5
f 10/1/3 6/3/3 8/9/3
f 11/8/1 9/7/1 3/3/1
f 12/14/6 10/12/6 9/15/6
f 12/2/3 6/3/3 10/1/3
f 13/16/1 11/8/1 3/3/1
f 14/17/7 12/14/7 11/18/8
f 14/19/3 6/3/3 12/2/3
f 15/20/1 13/16/1 3/3/1
f 16/21/9 14/17/9 13/22/9
f 16/20/3 6/3/3 14/19/3
f 17/19/1 15/20/1 3/3/1
f 18/23/10 16/21/10 15/24/10
f 18/16/3 6/3/3 16/20/3
f 2/2/1 17/19/1 3/3/1
f 5/25/11 18/23/11 17/26/11
f 5/8/3 6/3/3 18/16/3
f 19/27/12 20/28/12 21/29/12
f 22/30/13 23/31/13 20/28/13
f 22/30/14 24/32/14 23/31/14
f 25/33/15 26/34/15 27/35/15
f 28/36/16 29/37/16 26/34/16
f 28/36/17 24/38/17 29/37/17
f 30/39/18 19/27/18 31/40/18
f 32/41/19 22/30/19 19/27/19
f 32/41/20 24/42/20 22/30/20
f 33/43/21 25/33/21 34/44/21
f 35/45/22 28/36/22 25/33/22
f 35/45/23 24/46/23 28/36/23
f 36/47/24 30/39/24 37/48/24
f 38/49/25 32/41/25 30/39/25
f 38/49/26 24/50/26 32/41/26
f 39/51/27 33/43/27 40/52/27
f 41/53/28 35/45/28 33/43/28
f 41/53/29 24/54/29 35/45/29
f 26/55/30 36/47/30 42/56/30
f 29/57/31 38/49/31 36/47/31
f 29/57/32 24/58/32 38/49/32
f 20/28/33 39/51/33 43/59/33
f 23/31/34 41/53/34 39/51/34
f 23/31/35 24/60/35 41/53/35
f 44/27/12 45/28/12 46/29/12
f 47/30/13 48/31/13 45/28/13
f 47/30/14 49/32/14 48/31/14
f 50/33/15 51/34/15 52/35/15
f 53/36/16 54/37/16 51/34/16
f 53/36/17 49/38/17 54/37/17
f 55/39/18 44/27/18 56/40/18
f 57/41/19 47/30/19 44/27/19
f 57/41/20 49/42/20 47/30/20
f 58/43/21 50/33/21 59/44/21
f 60/45/22 53/36/22 50/33/22
f 60/45/23 49/46/23 53/36/23
f 61/47/24 55/39/24 62/48/24
f 63/49/25 57/41/25 55/39/25
f 63/49/26 49/50/26 57/41/26
f 64/51/27 58/43/27 65/52/27
f 66/53/28 60/45/28 58/43/28
f 66/53/29 49/54/29 60/45/29
f 51/55/30 61/47/30 67/56/30
f 54/57/31 63/49/31 61/47/31
f 54/57/32 49/58/32 63/49/32
f 45/28/33 64/51/33 68/59/33
f 48/31/34 66/53/34 64/51/34
f 48/31/35 49/60/35 66/53/35
f 69/27/12 70/28/12 71/29/12
f 72/30/13 73/31/13 70/28/13
f 72/30/14 74/32/14 73/31/14
f 75/33/15 76/34/15 77/35/15
f 78/36/16 79/37/16 76/34/16
f 78/36/17 74/38/17 79/37/17
f 80/39/18 69/27/18 81/40/18
f 82/41/19 72/30/19 69/27/19
f 82/41/20 74/42/20 72/30/20
f 83/43/21 75/33/21 84/44/21
f 85/45/22 78/36/22 75/33/22
f 85/45/23 74/46/23 78/36/23
f 86/47/24 80/39/24 87/48/24
f 88/49/25 82/41/25 80/39/25
f 88/49/26 74/50/26 82/41/26
f 89/51/27 83/43/27 90/52/27
f 91/53/28 85/45/28 83/43/28
f 91/53/29 74/54/29 85/45/29
f 76/55/30 86/47/30 92/56/30
f 79/57/31 88/49/31 86/47/31
f 79/57/32 74/58/32 88/49/32
f 70/28/33 89/51/33 93/59/33
f 73/31/34 91/53/34 89/51/34
f 73/31/35 74/60/35 91/53/35
f 1/11/2 4/4/2 2/6/2
f 7/13/4 8/10/4 1/11/4
f 9/15/5 10/12/5 7/13/5
f 11/18/6 12/14/6 9/15/6
f 13/22/8 14/17/7 11/18/8
f 15/24/9 16/21/9 13/22/9
f 17/26/10 18/23/10 15/24/10
f 2/61/11 5/25/11 17/26/11
f 31/40/12 19/27/12 21/29/12
f 19/27/13 22/30/13 20/28/13
f 34/44/15 25/33/15 27/35/15
f 25/33/16 28/36/16 26/34/16
f 37/48/18 30/39/18 31/40/18
f 30/39/19 32/41/19 19/27/19
f 40/52/21 33/43/21 34/44/21
f 33/43/22 35/45/22 25/33/22
f 42/56/24 36/47/24 37/48/24
f 36/47/25 38/49/25 30/39/25
f 43/59/27 39/51/27 40/52/27
f 39/51/28 41/53/28 33/43/28
f 27/62/30 26/55/30 42/56/30
f 26/55/31 29/57/31 36/47/31
f 21/29/33 20/28/33 43/59/33
f 20/28/34 23/31/34 39/51/34
f 56/40/12 44/27/12 46/29/12
f 44/27/13 47/30/13 45/28/13
f 59/44/15 50/33/15 52/35/15
f 50/33/16 53/36/16 51/34/16
f 62/48/18 55/39/18 56/40/18
f 55/39/19 57/41/19 44/27/19
f 65/52/21 58/43/21 59/44/21
f 58/43/22 60/45/22 50/33/22
f 67/56/24 61/47/24 62/48/24
f 61/47/25 63/49/25 55/39/25
f 68/59/27 64/51/27 65/52/27
f 64/51/28 66/53/28 58/43/28
f 52/62/30 51/55/30 67/56/30
f 51/55/31 54/57/31 61/47/31
f 46/29/33 45/28/33 68/59/33
f 45/28/34 48/31/34 64/51/34
f 81/40/12 69/27/12 71/29/12
f 69/27/13 72/30/13 70/28/13
f 84/44/15 75/33/15 77/35/15
f 75/33/16 78/36/16 76/34/16
f 87/48/18 80/39/18 81/40/18
f 80/39/19 82/41/19 69/27/19
f 90/52/21 83/43/21 84/44/21
f 83/43/22 85/45/22 75/33/22
f 92/56/24 86/47/24 87/48/24
f 86/47/25 88/49/25 80/39/25
f 93/59/27 89/51/27 90/52/27
f 89/51/28 91/53/28 83/43/28
f 77/62/30 76/55/30 92/56/30
f 76/55/31 79/57/31 86/47/31
f 71/29/33 70/28/33 93/59/33
f 70/28/34 73/31/34 89/51/34
