# Blender 4.3.2
# www.blender.org
mtllib Roca2.mtl
o Icosphere.001
v 0.174752 -0.122254 0.845819
v 0.606216 -0.063942 0.980256
v 0.362810 -0.143964 0.428896
v 0.873641 -0.110354 0.356042
v 1.034134 -0.036795 0.664832
v 0.570452 0.069614 1.080248
v -0.115171 0.021277 0.839724
v 0.120321 0.052760 0.244309
v 1.014805 0.088931 0.103468
v 1.180772 0.113599 0.604957
v 0.180594 0.129361 1.029570
v -0.109044 0.186066 0.502422
v 0.593015 0.226572 0.081590
v 1.222003 0.229099 0.307800
v 0.965706 0.188072 0.867657
v 0.458529 0.298489 0.899845
v 0.251806 0.361657 0.615268
v 0.682893 0.417410 0.368788
v 1.072020 0.371080 0.493500
v 0.895091 0.305351 0.846065
v 0.263192 -0.137282 0.642766
v 0.386229 -0.112429 0.962534
v -0.042765 -0.072019 0.860010
v 0.560105 -0.001623 1.054579
v 0.862487 -0.052177 0.836188
v 0.641142 -0.145742 0.389558
v 0.204165 -0.085858 0.294234
v 0.988869 -0.082306 0.524666
v 0.938618 -0.043206 0.186170
v 1.140603 0.036520 0.620333
v 0.351925 0.084031 1.108463
v 0.809616 0.137596 0.986886
v -0.144694 0.088758 0.655053
v -0.010099 0.079429 0.968768
v 0.328498 0.135214 0.136358
v -0.050245 0.136523 0.372331
v 1.177000 0.183452 0.182835
v 0.839859 0.146177 0.050158
v 1.098998 0.161221 0.748163
v 1.222598 0.152951 0.452731
v 0.292964 0.224947 0.944254
v 0.013831 0.302292 0.527890
v 0.620433 0.368171 0.176203
v 1.166807 0.322472 0.357467
v 0.925803 0.246487 0.849996
v 0.359579 0.333652 0.782929
v 0.711020 0.312094 0.920193
v 0.451246 0.403277 0.516296
v 0.944040 0.407553 0.434864
v 1.001195 0.342870 0.698707
v 0.682604 -0.137562 0.719062
v 0.146210 -0.038522 1.098114
v -0.076479 -0.052233 0.542814
v 0.583070 -0.063098 0.116599
v 1.178937 0.027241 0.351127
v 0.963078 0.062901 0.878148
v 0.009236 0.225151 0.771019
v 0.167615 0.329701 0.295837
v 1.047669 0.342405 0.148133
v 1.130966 0.256480 0.613664
v 0.630839 0.209591 1.013803
v 0.757461 0.387163 0.748313
vn -0.0098 -0.9966 0.0812
vn -0.1592 -0.9422 0.2947
vn -0.2310 -0.9724 -0.0332
vn 0.1269 -0.7441 0.6559
vn 0.2020 -0.9256 0.3200
vn 0.4084 -0.5848 0.7008
vn -0.0044 -0.9996 0.0269
vn -0.2291 -0.9678 -0.1040
vn -0.0666 -0.9535 -0.2939
vn 0.1730 -0.9848 0.0172
vn 0.1080 -0.9422 -0.3170
vn 0.4031 -0.9003 -0.1638
vn 0.2993 -0.9304 0.2114
vn 0.5741 -0.8128 0.0991
vn 0.5881 -0.6397 0.4949
vn 0.1181 -0.3071 0.9443
vn 0.4234 -0.3532 0.8343
vn 0.2026 0.3472 0.9156
vn -0.8543 -0.5195 0.0173
vn -0.7035 -0.3081 0.6404
vn -0.7484 0.5706 0.3381
vn -0.3370 -0.4142 -0.8455
vn -0.6259 -0.5083 -0.5915
vn -0.5126 0.2409 -0.8241
vn 0.5777 -0.6155 -0.5362
vn 0.1577 -0.5204 -0.8392
vn 0.3523 0.1179 -0.9284
vn 0.7703 -0.3127 0.5558
vn 0.8928 -0.4283 0.1393
vn 0.8866 0.2869 0.3629
vn -0.3323 0.4141 0.8474
vn -0.1075 0.7351 0.6694
vn -0.3368 0.7881 0.5152
vn -0.9226 -0.1836 -0.3392
vn -0.7164 0.6624 0.2191
vn -0.6444 0.6408 -0.4174
vn -0.1628 -0.1129 -0.9802
vn -0.2890 0.5017 -0.8154
vn 0.0012 0.4946 -0.8691
vn 0.9515 -0.2434 -0.1883
vn 0.7282 0.5563 -0.4003
vn 0.8809 0.4163 0.2249
vn 0.6330 0.0515 0.7724
vn 0.6061 0.5752 0.5493
vn 0.3625 0.5547 0.7489
vn -0.2698 0.8465 0.4590
vn -0.1054 0.7005 0.7058
vn -0.0874 0.9253 0.3691
vn -0.2257 0.9735 -0.0379
vn -0.3087 0.8999 0.3079
vn -0.1060 0.9704 0.2169
vn 0.0628 0.9720 -0.2266
vn -0.1417 0.9750 -0.1712
vn 0.0043 0.9969 0.0786
vn 0.6884 0.6629 0.2945
vn 0.3242 0.9406 -0.1010
vn 0.2040 0.9601 0.1912
vn 0.3909 0.3854 0.8359
vn 0.6807 0.4150 0.6036
vn 0.2259 0.8798 0.4182
vt 0.796600 0.823700
vt 0.788300 0.817100
vt 0.798100 0.797500
vt 0.805200 0.814700
vt 0.808000 0.829900
vt 0.793800 0.838200
vt 0.778000 0.833900
vt 0.809200 0.804100
vt 0.812700 0.808800
vt 0.806200 0.789900
vt 0.809500 0.785800
vt 0.779800 0.809700
vt 0.782000 0.795700
vt 0.768500 0.817200
vt 0.766900 0.796100
vt 0.783800 0.783900
vt 0.793400 0.780200
vt 0.774600 0.778400
vt 0.787100 0.768800
vt 0.800600 0.779500
vt 0.799900 0.771900
vt 0.832800 0.846100
vt 0.831700 0.839600
vt 0.839300 0.832500
vt 0.837100 0.845700
vt 0.836000 0.859400
vt 0.829800 0.852900
vt 0.824600 0.846500
vt 0.879100 0.858500
vt 0.878600 0.867500
vt 0.869900 0.868000
vt 0.873700 0.854200
vt 0.883000 0.839000
vt 0.886400 0.853000
vt 0.888900 0.866300
vt 0.876900 0.783800
vt 0.881700 0.795300
vt 0.866000 0.806900
vt 0.866200 0.785800
vt 0.868000 0.762500
vt 0.883200 0.771100
vt 0.894500 0.784900
vt 0.878800 0.828600
vt 0.885900 0.838400
vt 0.873500 0.839000
vt 0.869000 0.824000
vt 0.882100 0.821100
vt 0.895200 0.830700
vt 0.832400 0.873900
vt 0.829400 0.866700
vt 0.837100 0.873900
vt 0.835400 0.886200
vt 0.830000 0.880900
vt 0.820500 0.875200
vt 0.822900 0.820200
vt 0.825800 0.832000
vt 0.812700 0.831500
vt 0.814800 0.814100
vt 0.817800 0.799500
vt 0.826700 0.813500
vt 0.838800 0.830900
vt 0.881300 0.875200
vt 0.877100 0.879200
vt 0.889800 0.878100
vt 0.889800 0.889100
vt 0.887000 0.808900
vt 0.898300 0.808800
vt 0.825100 0.887100
vt 0.826200 0.893700
vt 0.813100 0.898600
vt 0.818100 0.886300
vt 0.827400 0.859900
vt 0.823700 0.860100
vt 0.827900 0.804400
vt 0.834600 0.808400
vt 0.822400 0.790400
vt 0.827400 0.783500
vt 0.843700 0.812600
vt 0.847000 0.801800
vt 0.861200 0.815200
vt 0.851700 0.826800
vt 0.852200 0.789200
vt 0.846800 0.776700
vt 0.860800 0.770300
vt 0.864400 0.791800
vt 0.842600 0.770900
vt 0.831700 0.775200
vt 0.835600 0.766200
vt 0.850000 0.764300
vt 0.820000 0.859900
vt 0.818400 0.852800
vt 0.817900 0.866400
vt 0.812700 0.858900
s 1
usemtl Material.009
f 1/1/1 21/2/1 51/3/1 22/4/1
f 1/1/2 22/4/2 52/5/2 23/6/2
f 1/1/3 23/6/3 53/7/3 21/2/3
f 2/8/4 24/9/4 52/5/4 22/4/4
f 2/8/5 22/4/5 51/3/5 25/10/5
f 2/8/6 25/10/6 56/11/6 24/9/6
f 3/12/7 26/13/7 51/3/7 21/2/7
f 3/12/8 21/2/8 53/7/8 27/14/8
f 3/12/9 27/14/9 54/15/9 26/13/9
f 4/16/10 28/17/10 51/3/10 26/13/10
f 4/16/11 26/13/11 54/15/11 29/18/11
f 4/16/12 29/18/12 55/19/12 28/17/12
f 5/20/13 25/10/13 51/3/13 28/17/13
f 5/20/14 28/17/14 55/19/14 30/21/14
f 5/20/15 30/21/15 56/11/15 25/10/15
f 6/22/16 31/23/16 52/24/16 24/25/16
f 6/22/17 24/25/17 56/26/17 32/27/17
f 6/22/18 32/27/18 61/28/18 31/23/18
f 7/29/19 33/30/19 53/31/19 23/32/19
f 7/29/20 23/32/20 52/33/20 34/34/20
f 7/29/21 34/34/21 57/35/21 33/30/21
f 8/36/22 35/37/22 54/38/22 27/39/22
f 8/36/23 27/39/23 53/40/23 36/41/23
f 8/36/24 36/41/24 58/42/24 35/37/24
f 9/43/25 37/44/25 55/45/25 29/46/25
f 9/43/26 29/46/26 54/38/26 38/47/26
f 9/43/27 38/47/27 59/48/27 37/44/27
f 10/49/28 39/50/28 56/26/28 30/51/28
f 10/49/29 30/51/29 55/52/29 40/53/29
f 10/49/30 40/53/30 60/54/30 39/50/30
f 11/55/31 34/56/31 52/57/31 31/58/31
f 11/55/32 31/58/32 61/59/32 41/60/32
f 11/55/33 41/60/33 57/61/33 34/56/33
f 12/62/34 36/63/34 53/31/34 33/30/34
f 12/62/35 33/30/35 57/35/35 42/64/35
f 12/62/36 42/64/36 58/65/36 36/63/36
f 13/66/37 38/47/37 54/38/37 35/37/37
f 13/66/38 35/37/38 58/42/38 43/67/38
f 13/66/39 43/67/39 59/48/39 38/47/39
f 14/68/40 40/53/40 55/52/40 37/69/40
f 14/68/41 37/69/41 59/70/41 44/71/41
f 14/68/42 44/71/42 60/54/42 40/53/42
f 15/72/43 32/27/43 56/26/43 39/50/43
f 15/72/44 39/50/44 60/54/44 45/73/44
f 15/72/45 45/73/45 61/28/45 32/27/45
f 16/74/46 46/75/46 57/61/46 41/60/46
f 16/74/47 41/60/47 61/59/47 47/76/47
f 16/74/48 47/76/48 62/77/48 46/75/48
f 17/78/49 48/79/49 58/80/49 42/81/49
f 17/78/50 42/81/50 57/61/50 46/75/50
f 17/78/51 46/75/51 62/77/51 48/79/51
f 18/82/52 49/83/52 59/84/52 43/85/52
f 18/82/53 43/85/53 58/80/53 48/79/53
f 18/82/54 48/79/54 62/77/54 49/83/54
f 19/86/55 50/87/55 60/88/55 44/89/55
f 19/86/56 44/89/56 59/84/56 49/83/56
f 19/86/57 49/83/57 62/77/57 50/87/57
f 20/90/58 47/91/58 61/28/58 45/73/58
f 20/90/59 45/73/59 60/54/59 50/92/59
f 20/90/60 50/92/60 62/93/60 47/91/60
