# Blender 4.4.0
# www.blender.org
mtllib sol.mtl
o sun
v 0.108876 0.533682 0.060642
v -0.108876 0.533682 0.060642
v 0.108876 0.533682 -0.060642
v -0.108876 0.533682 -0.060642
v 0.012702 0.864082 0.007075
v -0.012702 0.864082 0.007075
v 0.012702 0.864082 -0.007075
v -0.012702 0.864082 -0.007075
v 0.111493 -0.480470 -0.064371
v 0.064371 -0.480470 -0.111493
v 0.000000 -0.480470 -0.128741
v -0.064371 -0.480470 -0.111493
v -0.111493 -0.480470 -0.064371
v -0.128741 -0.480470 0.000000
v -0.111493 -0.480470 0.064371
v -0.064371 -0.480470 0.111493
v 0.000000 -0.480470 0.128741
v 0.064371 -0.480470 0.111493
v 0.111493 -0.480470 0.064371
v 0.128741 -0.480470 0.000000
v 0.215389 -0.430777 -0.124355
v 0.124355 -0.430777 -0.215389
v 0.000000 -0.430777 -0.248709
v -0.124355 -0.430777 -0.215389
v -0.215389 -0.430777 -0.124355
v -0.248709 -0.430777 0.000000
v -0.215389 -0.430777 0.124355
v -0.124355 -0.430777 0.215389
v 0.000000 -0.430777 0.248709
v 0.124355 -0.430777 0.215389
v 0.215389 -0.430777 0.124355
v 0.248709 -0.430777 0.000000
v 0.304605 -0.351728 -0.175864
v 0.175864 -0.351728 -0.304605
v 0.000000 -0.351728 -0.351728
v -0.175864 -0.351728 -0.304605
v -0.304605 -0.351728 -0.175864
v -0.351728 -0.351728 0.000000
v -0.304605 -0.351728 0.175864
v -0.175864 -0.351728 0.304605
v 0.000000 -0.351728 0.351728
v 0.175864 -0.351728 0.304605
v 0.304605 -0.351728 0.175864
v 0.351728 -0.351728 0.000000
v 0.373064 -0.248709 -0.215389
v 0.215389 -0.248709 -0.373064
v 0.000000 -0.248709 -0.430777
v -0.215389 -0.248709 -0.373064
v -0.373064 -0.248709 -0.215389
v -0.430777 -0.248709 0.000000
v -0.373064 -0.248709 0.215389
v -0.215389 -0.248709 0.373064
v 0.000000 -0.248709 0.430777
v 0.215389 -0.248709 0.373064
v 0.373064 -0.248709 0.215389
v 0.430777 -0.248709 0.000000
v 0.416099 -0.128741 -0.240235
v 0.240235 -0.128741 -0.416099
v 0.000000 -0.128741 -0.480470
v -0.240235 -0.128741 -0.416099
v -0.416099 -0.128741 -0.240235
v -0.480470 -0.128741 0.000000
v -0.416099 -0.128741 0.240235
v -0.240235 -0.128741 0.416099
v 0.000000 -0.128741 0.480470
v 0.240235 -0.128741 0.416099
v 0.416099 -0.128741 0.240235
v 0.480470 -0.128741 0.000000
v 0.430777 -0.000000 -0.248709
v 0.248709 -0.000000 -0.430777
v 0.000000 -0.000000 -0.497419
v -0.248709 -0.000000 -0.430777
v -0.430777 -0.000000 -0.248709
v -0.497419 0.000000 0.000000
v -0.430777 0.000000 0.248709
v -0.248709 0.000000 0.430777
v 0.000000 0.000000 0.497419
v 0.248709 0.000000 0.430777
v 0.430777 0.000000 0.248709
v 0.497419 0.000000 0.000000
v 0.416099 0.128741 -0.240235
v 0.240235 0.128741 -0.416099
v 0.000000 0.128741 -0.480470
v -0.240235 0.128741 -0.416099
v -0.416099 0.128741 -0.240235
v -0.480470 0.128741 -0.000000
v -0.416099 0.128741 0.240235
v -0.240235 0.128741 0.416099
v 0.000000 0.128741 0.480470
v 0.240235 0.128741 0.416099
v 0.416099 0.128741 0.240235
v 0.480470 0.128741 -0.000000
v 0.373064 0.248709 -0.215389
v 0.215389 0.248709 -0.373064
v 0.000000 0.248709 -0.430777
v -0.215389 0.248709 -0.373064
v -0.373064 0.248709 -0.215389
v -0.430777 0.248709 -0.000000
v -0.373064 0.248709 0.215389
v -0.215389 0.248709 0.373064
v 0.000000 0.248709 0.430777
v 0.215389 0.248709 0.373064
v 0.373064 0.248709 0.215389
v 0.430777 0.248709 -0.000000
v 0.304605 0.351728 -0.175864
v 0.175864 0.351728 -0.304605
v 0.000000 0.351728 -0.351728
v -0.175864 0.351728 -0.304605
v -0.304605 0.351728 -0.175864
v -0.351728 0.351728 -0.000000
v -0.304605 0.351728 0.175864
v -0.175864 0.351728 0.304605
v 0.000000 0.351728 0.351728
v 0.175864 0.351728 0.304605
v 0.304605 0.351728 0.175864
v 0.351728 0.351728 -0.000000
v 0.215389 0.430777 -0.124355
v 0.124355 0.430777 -0.215389
v 0.000000 0.430777 -0.248709
v -0.124355 0.430777 -0.215389
v -0.215389 0.430777 -0.124355
v -0.248709 0.430777 -0.000000
v -0.215389 0.430777 0.124355
v -0.124355 0.430777 0.215389
v 0.000000 0.430777 0.248709
v 0.124355 0.430777 0.215389
v 0.215389 0.430777 0.124355
v 0.248709 0.430777 -0.000000
v 0.111493 0.480470 -0.064371
v 0.064371 0.480470 -0.111493
v 0.000000 0.480470 -0.128741
v -0.064371 0.480470 -0.111493
v -0.111493 0.480470 -0.064371
v -0.128741 0.480470 -0.000000
v -0.111493 0.480470 0.064371
v -0.064371 0.480470 0.111493
v 0.000000 0.480470 0.128741
v 0.064371 0.480470 0.111493
v 0.111493 0.480470 0.064371
v 0.128741 0.480470 -0.000000
v 0.000000 -0.497419 0.000000
v 0.000000 0.497419 -0.000000
v -0.167000 0.513416 0.060642
v -0.355580 0.404539 0.060642
v -0.167000 0.513416 -0.060642
v -0.355580 0.404539 -0.060642
v -0.415489 0.751463 0.007075
v -0.437490 0.738761 0.007075
v -0.415489 0.751463 -0.007075
v -0.437490 0.738761 -0.007075
v 0.404539 0.355580 0.060642
v 0.513416 0.167000 0.060642
v 0.404539 0.355580 -0.060642
v 0.513416 0.167000 -0.060642
v 0.738761 0.437490 0.007075
v 0.751463 0.415489 0.007075
v 0.738761 0.437490 -0.007075
v 0.751463 0.415489 -0.007075
v 0.533682 0.108877 0.060642
v 0.533682 -0.108876 0.060642
v 0.533682 0.108876 -0.060642
v 0.533682 -0.108877 -0.060642
v 0.864082 0.012703 0.007075
v 0.864082 -0.012702 0.007075
v 0.864082 0.012703 -0.007075
v 0.864082 -0.012702 -0.007075
v 0.513416 -0.167000 0.060642
v 0.404539 -0.355580 0.060642
v 0.513416 -0.167000 -0.060642
v 0.404539 -0.355580 -0.060642
v 0.751463 -0.415489 0.007075
v 0.738761 -0.437490 0.007075
v 0.751463 -0.415489 -0.007075
v 0.738761 -0.437490 -0.007075
v 0.355580 -0.404539 0.060642
v 0.167000 -0.513416 0.060642
v 0.355580 -0.404539 -0.060642
v 0.167000 -0.513416 -0.060642
v 0.437490 -0.738761 0.007075
v 0.415489 -0.751463 0.007075
v 0.437490 -0.738761 -0.007075
v 0.415489 -0.751463 -0.007075
v 0.167000 0.513416 0.060642
v 0.355580 0.404539 0.060642
v 0.167000 0.513416 -0.060642
v 0.355580 0.404539 -0.060642
v 0.415489 0.751463 0.007075
v 0.437490 0.738761 0.007075
v 0.415489 0.751463 -0.007075
v 0.437490 0.738761 -0.007075
v -0.108876 -0.533682 0.060642
v 0.108876 -0.533682 0.060642
v -0.108876 -0.533682 -0.060642
v 0.108876 -0.533682 -0.060642
v -0.012702 -0.864082 0.007075
v 0.012702 -0.864082 0.007075
v -0.012702 -0.864082 -0.007075
v 0.012702 -0.864082 -0.007075
v -0.355580 -0.404539 0.060642
v -0.167000 -0.513416 0.060642
v -0.355580 -0.404539 -0.060642
v -0.167000 -0.513416 -0.060642
v -0.437490 -0.738761 0.007075
v -0.415489 -0.751463 0.007075
v -0.437490 -0.738761 -0.007075
v -0.415489 -0.751463 -0.007075
v -0.513416 -0.167000 0.060642
v -0.404539 -0.355580 0.060642
v -0.513416 -0.167000 -0.060642
v -0.404539 -0.355580 -0.060642
v -0.751463 -0.415489 0.007075
v -0.738761 -0.437490 0.007075
v -0.751463 -0.415489 -0.007075
v -0.738761 -0.437490 -0.007075
v -0.533682 0.108877 0.060642
v -0.533682 -0.108876 0.060642
v -0.533682 0.108876 -0.060642
v -0.533682 -0.108877 -0.060642
v -0.864082 0.012703 0.007075
v -0.864082 -0.012702 0.007075
v -0.864082 0.012703 -0.007075
v -0.864082 -0.012702 -0.007075
v -0.404539 0.355580 0.060642
v -0.513416 0.167000 0.060642
v -0.404539 0.355580 -0.060642
v -0.513416 0.167000 -0.060642
v -0.738761 0.437490 0.007075
v -0.751463 0.415489 0.007075
v -0.738761 0.437490 -0.007075
v -0.751463 0.415489 -0.007075
vn -0.0000 1.0000 -0.0000
vn -0.0000 -1.0000 -0.0000
vn -0.0000 0.1600 0.9871
vn 0.9601 0.2795 -0.0000
vn -0.0000 0.1600 -0.9871
vn -0.9602 0.2795 -0.0000
vn 0.2787 -0.9191 -0.2787
vn 0.1020 -0.9191 -0.3807
vn -0.1020 -0.9191 -0.3807
vn -0.2787 -0.9191 -0.2787
vn -0.3807 -0.9191 -0.1020
vn -0.3807 -0.9191 0.1020
vn -0.2787 -0.9191 0.2787
vn -0.1020 -0.9191 0.3807
vn 0.1020 -0.9191 0.3807
vn 0.2787 -0.9191 0.2787
vn 0.3807 -0.9191 0.1020
vn 0.3807 -0.9191 -0.1020
vn 0.4398 -0.7830 -0.4398
vn 0.1610 -0.7830 -0.6008
vn -0.1610 -0.7830 -0.6008
vn -0.4398 -0.7830 -0.4398
vn -0.6008 -0.7830 -0.1610
vn -0.6008 -0.7830 0.1610
vn -0.4398 -0.7830 0.4398
vn -0.1610 -0.7830 0.6008
vn 0.1610 -0.7830 0.6008
vn 0.4398 -0.7830 0.4398
vn 0.6008 -0.7830 0.1610
vn 0.6008 -0.7830 -0.1610
vn 0.5681 -0.5955 -0.5681
vn 0.2079 -0.5955 -0.7760
vn -0.2079 -0.5955 -0.7760
vn -0.5681 -0.5955 -0.5681
vn -0.7760 -0.5955 -0.2079
vn -0.7760 -0.5955 0.2079
vn -0.5681 -0.5955 0.5681
vn -0.2079 -0.5955 0.7760
vn 0.2079 -0.5955 0.7760
vn 0.5681 -0.5955 0.5681
vn 0.7760 -0.5955 0.2079
vn 0.7760 -0.5955 -0.2079
vn 0.6565 -0.3715 -0.6565
vn 0.2403 -0.3715 -0.8968
vn -0.2403 -0.3715 -0.8968
vn -0.6565 -0.3715 -0.6565
vn -0.8968 -0.3715 -0.2403
vn -0.8968 -0.3715 0.2403
vn -0.6565 -0.3715 0.6565
vn -0.2403 -0.3715 0.8968
vn 0.2403 -0.3715 0.8968
vn 0.6565 -0.3715 0.6565
vn 0.8968 -0.3715 0.2403
vn 0.8968 -0.3715 -0.2403
vn 0.7015 -0.1262 -0.7015
vn 0.2568 -0.1262 -0.9582
vn -0.2568 -0.1262 -0.9582
vn -0.7015 -0.1262 -0.7015
vn -0.9582 -0.1261 -0.2568
vn -0.9582 -0.1261 0.2568
vn -0.7015 -0.1262 0.7015
vn -0.2568 -0.1261 0.9582
vn 0.2568 -0.1261 0.9582
vn 0.7015 -0.1261 0.7015
vn 0.9582 -0.1261 0.2568
vn 0.9582 -0.1261 -0.2568
vn 0.7015 0.1262 -0.7015
vn 0.2568 0.1261 -0.9582
vn -0.2568 0.1261 -0.9582
vn -0.7015 0.1261 -0.7015
vn -0.9582 0.1261 -0.2568
vn -0.9582 0.1261 0.2568
vn -0.7015 0.1262 0.7015
vn -0.2568 0.1262 0.9582
vn 0.2568 0.1262 0.9582
vn 0.7015 0.1262 0.7015
vn 0.9582 0.1261 0.2568
vn 0.9582 0.1261 -0.2568
vn 0.6565 0.3715 -0.6565
vn 0.2403 0.3715 -0.8968
vn -0.2403 0.3715 -0.8968
vn -0.6565 0.3715 -0.6565
vn -0.8968 0.3715 -0.2403
vn -0.8968 0.3715 0.2403
vn -0.6565 0.3715 0.6565
vn -0.2403 0.3715 0.8968
vn 0.2403 0.3715 0.8968
vn 0.6565 0.3715 0.6565
vn 0.8968 0.3715 0.2403
vn 0.8968 0.3715 -0.2403
vn 0.5681 0.5955 -0.5681
vn 0.2079 0.5955 -0.7760
vn -0.2079 0.5955 -0.7760
vn -0.5681 0.5955 -0.5681
vn -0.7760 0.5955 -0.2079
vn -0.7760 0.5955 0.2079
vn -0.5681 0.5955 0.5681
vn -0.2079 0.5955 0.7760
vn 0.2079 0.5955 0.7760
vn 0.5681 0.5955 0.5681
vn 0.7760 0.5955 0.2079
vn 0.7760 0.5955 -0.2079
vn 0.4398 0.7830 -0.4398
vn 0.1610 0.7830 -0.6008
vn -0.1610 0.7830 -0.6008
vn -0.4398 0.7830 -0.4398
vn -0.6008 0.7830 -0.1610
vn -0.6008 0.7830 0.1610
vn -0.4398 0.7830 0.4398
vn -0.1610 0.7830 0.6008
vn 0.1610 0.7830 0.6008
vn 0.4398 0.7830 0.4398
vn 0.6008 0.7830 0.1610
vn 0.6008 0.7830 -0.1610
vn 0.2787 0.9191 -0.2787
vn 0.1020 0.9191 -0.3807
vn -0.1020 0.9191 -0.3807
vn -0.2787 0.9191 -0.2787
vn -0.3807 0.9191 -0.1020
vn -0.3807 0.9191 0.1020
vn -0.2787 0.9191 0.2787
vn -0.1020 0.9191 0.3807
vn 0.1020 0.9191 0.3807
vn 0.2787 0.9191 0.2787
vn 0.3807 0.9191 0.1020
vn 0.3807 0.9191 -0.1020
vn 0.0955 -0.9908 -0.0955
vn 0.0350 -0.9908 -0.1304
vn -0.0350 -0.9908 -0.1304
vn -0.0955 -0.9908 -0.0955
vn -0.1304 -0.9908 -0.0350
vn -0.1304 -0.9908 0.0350
vn -0.0955 -0.9908 0.0955
vn -0.0350 -0.9908 0.1304
vn 0.0350 -0.9908 0.1304
vn 0.0955 -0.9908 0.0955
vn 0.1304 -0.9908 0.0350
vn 0.1304 -0.9908 -0.0350
vn 0.0955 0.9908 -0.0955
vn 0.0350 0.9908 -0.1304
vn -0.0350 0.9908 -0.1304
vn -0.0955 0.9908 -0.0955
vn -0.1304 0.9908 -0.0350
vn -0.1304 0.9908 0.0350
vn -0.0955 0.9908 0.0955
vn -0.0350 0.9908 0.1304
vn 0.0350 0.9908 0.1304
vn 0.0955 0.9908 0.0955
vn 0.1304 0.9908 0.0350
vn 0.1304 0.9908 -0.0350
vn -0.5000 0.8660 -0.0000
vn 0.5000 -0.8660 -0.0000
vn -0.0800 0.1386 0.9871
vn 0.6918 0.7221 -0.0000
vn -0.0800 0.1386 -0.9871
vn -0.9713 -0.2380 -0.0000
vn 0.8660 0.5000 -0.0000
vn -0.8660 -0.5000 -0.0000
vn 0.1386 0.0800 0.9871
vn -0.2380 0.9713 -0.0000
vn 0.1386 0.0800 -0.9871
vn 0.7221 -0.6918 -0.0000
vn 1.0000 -0.0000 -0.0000
vn -1.0000 -0.0000 -0.0000
vn 0.1600 -0.0000 0.9871
vn 0.2795 0.9602 -0.0000
vn 0.1600 -0.0000 -0.9871
vn 0.2795 -0.9602 -0.0000
vn 0.8660 -0.5000 -0.0000
vn -0.8660 0.5000 -0.0000
vn 0.1386 -0.0800 0.9871
vn 0.7221 0.6918 -0.0000
vn 0.1386 -0.0800 -0.9871
vn -0.2380 -0.9713 -0.0000
vn 0.0800 -0.1386 0.9871
vn 0.9713 0.2380 -0.0000
vn 0.0800 -0.1386 -0.9871
vn -0.6918 -0.7221 -0.0000
vn 0.5000 0.8660 -0.0000
vn -0.5000 -0.8660 -0.0000
vn 0.0800 0.1386 0.9871
vn -0.6918 0.7221 -0.0000
vn 0.0800 0.1386 -0.9871
vn 0.9713 -0.2380 -0.0000
vn -0.0000 -0.1600 0.9871
vn -0.9602 -0.2795 -0.0000
vn -0.0000 -0.1600 -0.9871
vn 0.9601 -0.2795 -0.0000
vn -0.0800 -0.1386 0.9871
vn -0.9713 0.2380 -0.0000
vn -0.0800 -0.1386 -0.9871
vn 0.6918 -0.7221 -0.0000
vn -0.1386 -0.0800 0.9871
vn -0.7221 0.6918 -0.0000
vn -0.1386 -0.0800 -0.9871
vn 0.2380 -0.9713 -0.0000
vn -0.1600 -0.0000 0.9871
vn -0.2795 0.9602 -0.0000
vn -0.1600 -0.0000 -0.9871
vn -0.2795 -0.9602 -0.0000
vn -0.1386 0.0800 0.9871
vn 0.2380 0.9713 -0.0000
vn -0.1386 0.0800 -0.9871
vn -0.7221 -0.6918 -0.0000
vt 0.166667 0.583333
vt 0.083333 0.583333
vt 0.083333 0.416667
vt 0.166667 0.416667
vt 0.000000 0.083333
vt 0.083333 0.083333
vt 0.083333 0.166667
vt 0.000000 0.166667
vt 0.166667 0.083333
vt 0.166667 0.166667
vt 0.250000 0.083333
vt 0.250000 0.166667
vt 0.333333 0.083333
vt 0.333333 0.166667
vt 0.416667 0.083333
vt 0.416667 0.166667
vt 0.500000 0.083333
vt 0.500000 0.166667
vt 0.583333 0.083333
vt 0.583333 0.166667
vt 0.666667 0.083333
vt 0.666667 0.166667
vt 0.750000 0.083333
vt 0.750000 0.166667
vt 0.833333 0.083333
vt 0.833333 0.166667
vt 0.916667 0.083333
vt 0.916667 0.166667
vt 1.000000 0.083333
vt 1.000000 0.166667
vt 0.083333 0.250000
vt 0.000000 0.250000
vt 0.166667 0.250000
vt 0.250000 0.250000
vt 0.333333 0.250000
vt 0.416667 0.250000
vt 0.500000 0.250000
vt 0.583333 0.250000
vt 0.666667 0.250000
vt 0.750000 0.250000
vt 0.833333 0.250000
vt 0.916667 0.250000
vt 1.000000 0.250000
vt 0.083333 0.333333
vt 0.000000 0.333333
vt 0.166667 0.333333
vt 0.250000 0.333333
vt 0.333333 0.333333
vt 0.416667 0.333333
vt 0.500000 0.333333
vt 0.583333 0.333333
vt 0.666667 0.333333
vt 0.750000 0.333333
vt 0.833333 0.333333
vt 0.916667 0.333333
vt 1.000000 0.333333
vt 0.000000 0.416667
vt 0.250000 0.416667
vt 0.333333 0.416667
vt 0.416667 0.416667
vt 0.500000 0.416667
vt 0.583333 0.416667
vt 0.666667 0.416667
vt 0.750000 0.416667
vt 0.833333 0.416667
vt 0.916667 0.416667
vt 1.000000 0.416667
vt 0.083333 0.500000
vt 0.000000 0.500000
vt 0.166667 0.500000
vt 0.250000 0.500000
vt 0.333333 0.500000
vt 0.416667 0.500000
vt 0.500000 0.500000
vt 0.583333 0.500000
vt 0.666667 0.500000
vt 0.750000 0.500000
vt 0.833333 0.500000
vt 0.916667 0.500000
vt 1.000000 0.500000
vt 0.000000 0.583333
vt 0.250000 0.583333
vt 0.333333 0.583333
vt 0.416667 0.583333
vt 0.500000 0.583333
vt 0.583333 0.583333
vt 0.666667 0.583333
vt 0.750000 0.583333
vt 0.833333 0.583333
vt 0.916667 0.583333
vt 1.000000 0.583333
vt 0.083333 0.666667
vt 0.000000 0.666667
vt 0.166667 0.666667
vt 0.250000 0.666667
vt 0.333333 0.666667
vt 0.416667 0.666667
vt 0.500000 0.666667
vt 0.583333 0.666667
vt 0.666667 0.666667
vt 0.750000 0.666667
vt 0.833333 0.666667
vt 0.916667 0.666667
vt 1.000000 0.666667
vt 0.083333 0.750000
vt 0.000000 0.750000
vt 0.166667 0.750000
vt 0.250000 0.750000
vt 0.333333 0.750000
vt 0.416667 0.750000
vt 0.500000 0.750000
vt 0.583333 0.750000
vt 0.666667 0.750000
vt 0.750000 0.750000
vt 0.833333 0.750000
vt 0.916667 0.750000
vt 1.000000 0.750000
vt 0.083333 0.833333
vt 0.000000 0.833333
vt 0.166667 0.833333
vt 0.250000 0.833333
vt 0.333333 0.833333
vt 0.416667 0.833333
vt 0.500000 0.833333
vt 0.583333 0.833333
vt 0.666667 0.833333
vt 0.750000 0.833333
vt 0.833333 0.833333
vt 0.916667 0.833333
vt 1.000000 0.833333
vt 0.083333 0.916667
vt 0.000000 0.916667
vt 0.166667 0.916667
vt 0.250000 0.916667
vt 0.333333 0.916667
vt 0.416667 0.916667
vt 0.500000 0.916667
vt 0.583333 0.916667
vt 0.666667 0.916667
vt 0.750000 0.916667
vt 0.833333 0.916667
vt 0.916667 0.916667
vt 1.000000 0.916667
vt 0.041667 0.000000
vt 0.125000 0.000000
vt 0.208333 0.000000
vt 0.291667 0.000000
vt 0.375000 0.000000
vt 0.458333 0.000000
vt 0.541667 0.000000
vt 0.625000 0.000000
vt 0.708333 0.000000
vt 0.791667 0.000000
vt 0.875000 0.000000
vt 0.958333 0.000000
vt 0.041667 1.000000
vt 0.125000 1.000000
vt 0.208333 1.000000
vt 0.291667 1.000000
vt 0.375000 1.000000
vt 0.458333 1.000000
vt 0.541667 1.000000
vt 0.625000 1.000000
vt 0.708333 1.000000
vt 0.791667 1.000000
vt 0.875000 1.000000
vt 0.958333 1.000000
s 0
usemtl lambert2SG
f 6/1/1 5/2/1 7/3/1 8/4/1
f 2/1/2 4/4/2 3/3/2 1/2/2
f 2/1/3 1/2/3 5/2/3 6/1/3
f 1/2/4 3/3/4 7/3/4 5/2/4
f 3/3/5 4/4/5 8/4/5 7/3/5
f 4/4/6 2/1/6 6/1/6 8/4/6
f 9/5/7 10/6/7 22/7/7 21/8/7
f 10/6/8 11/9/8 23/10/8 22/7/8
f 11/9/9 12/11/9 24/12/9 23/10/9
f 12/11/10 13/13/10 25/14/10 24/12/10
f 13/13/11 14/15/11 26/16/11 25/14/11
f 14/15/12 15/17/12 27/18/12 26/16/12
f 15/17/13 16/19/13 28/20/13 27/18/13
f 16/19/14 17/21/14 29/22/14 28/20/14
f 17/21/15 18/23/15 30/24/15 29/22/15
f 18/23/16 19/25/16 31/26/16 30/24/16
f 19/25/17 20/27/17 32/28/17 31/26/17
f 20/27/18 9/29/18 21/30/18 32/28/18
f 21/8/19 22/7/19 34/31/19 33/32/19
f 22/7/20 23/10/20 35/33/20 34/31/20
f 23/10/21 24/12/21 36/34/21 35/33/21
f 24/12/22 25/14/22 37/35/22 36/34/22
f 25/14/23 26/16/23 38/36/23 37/35/23
f 26/16/24 27/18/24 39/37/24 38/36/24
f 27/18/25 28/20/25 40/38/25 39/37/25
f 28/20/26 29/22/26 41/39/26 40/38/26
f 29/22/27 30/24/27 42/40/27 41/39/27
f 30/24/28 31/26/28 43/41/28 42/40/28
f 31/26/29 32/28/29 44/42/29 43/41/29
f 32/28/30 21/30/30 33/43/30 44/42/30
f 33/32/31 34/31/31 46/44/31 45/45/31
f 34/31/32 35/33/32 47/46/32 46/44/32
f 35/33/33 36/34/33 48/47/33 47/46/33
f 36/34/34 37/35/34 49/48/34 48/47/34
f 37/35/35 38/36/35 50/49/35 49/48/35
f 38/36/36 39/37/36 51/50/36 50/49/36
f 39/37/37 40/38/37 52/51/37 51/50/37
f 40/38/38 41/39/38 53/52/38 52/51/38
f 41/39/39 42/40/39 54/53/39 53/52/39
f 42/40/40 43/41/40 55/54/40 54/53/40
f 43/41/41 44/42/41 56/55/41 55/54/41
f 44/42/42 33/43/42 45/56/42 56/55/42
f 45/45/43 46/44/43 58/3/43 57/57/43
f 46/44/44 47/46/44 59/4/44 58/3/44
f 47/46/45 48/47/45 60/58/45 59/4/45
f 48/47/46 49/48/46 61/59/46 60/58/46
f 49/48/47 50/49/47 62/60/47 61/59/47
f 50/49/48 51/50/48 63/61/48 62/60/48
f 51/50/49 52/51/49 64/62/49 63/61/49
f 52/51/50 53/52/50 65/63/50 64/62/50
f 53/52/51 54/53/51 66/64/51 65/63/51
f 54/53/52 55/54/52 67/65/52 66/64/52
f 55/54/53 56/55/53 68/66/53 67/65/53
f 56/55/54 45/56/54 57/67/54 68/66/54
f 57/57/55 58/3/55 70/68/55 69/69/55
f 58/3/56 59/4/56 71/70/56 70/68/56
f 59/4/57 60/58/57 72/71/57 71/70/57
f 60/58/58 61/59/58 73/72/58 72/71/58
f 61/59/59 62/60/59 74/73/59 73/72/59
f 62/60/60 63/61/60 75/74/60 74/73/60
f 63/61/61 64/62/61 76/75/61 75/74/61
f 64/62/62 65/63/62 77/76/62 76/75/62
f 65/63/63 66/64/63 78/77/63 77/76/63
f 66/64/64 67/65/64 79/78/64 78/77/64
f 67/65/65 68/66/65 80/79/65 79/78/65
f 68/66/66 57/67/66 69/80/66 80/79/66
f 69/69/67 70/68/67 82/2/67 81/81/67
f 70/68/68 71/70/68 83/1/68 82/2/68
f 71/70/69 72/71/69 84/82/69 83/1/69
f 72/71/70 73/72/70 85/83/70 84/82/70
f 73/72/71 74/73/71 86/84/71 85/83/71
f 74/73/72 75/74/72 87/85/72 86/84/72
f 75/74/73 76/75/73 88/86/73 87/85/73
f 76/75/74 77/76/74 89/87/74 88/86/74
f 77/76/75 78/77/75 90/88/75 89/87/75
f 78/77/76 79/78/76 91/89/76 90/88/76
f 79/78/77 80/79/77 92/90/77 91/89/77
f 80/79/78 69/80/78 81/91/78 92/90/78
f 81/81/79 82/2/79 94/92/79 93/93/79
f 82/2/80 83/1/80 95/94/80 94/92/80
f 83/1/81 84/82/81 96/95/81 95/94/81
f 84/82/82 85/83/82 97/96/82 96/95/82
f 85/83/83 86/84/83 98/97/83 97/96/83
f 86/84/84 87/85/84 99/98/84 98/97/84
f 87/85/85 88/86/85 100/99/85 99/98/85
f 88/86/86 89/87/86 101/100/86 100/99/86
f 89/87/87 90/88/87 102/101/87 101/100/87
f 90/88/88 91/89/88 103/102/88 102/101/88
f 91/89/89 92/90/89 104/103/89 103/102/89
f 92/90/90 81/91/90 93/104/90 104/103/90
f 93/93/91 94/92/91 106/105/91 105/106/91
f 94/92/92 95/94/92 107/107/92 106/105/92
f 95/94/93 96/95/93 108/108/93 107/107/93
f 96/95/94 97/96/94 109/109/94 108/108/94
f 97/96/95 98/97/95 110/110/95 109/109/95
f 98/97/96 99/98/96 111/111/96 110/110/96
f 99/98/97 100/99/97 112/112/97 111/111/97
f 100/99/98 101/100/98 113/113/98 112/112/98
f 101/100/99 102/101/99 114/114/99 113/113/99
f 102/101/100 103/102/100 115/115/100 114/114/100
f 103/102/101 104/103/101 116/116/101 115/115/101
f 104/103/102 93/104/102 105/117/102 116/116/102
f 105/106/103 106/105/103 118/118/103 117/119/103
f 106/105/104 107/107/104 119/120/104 118/118/104
f 107/107/105 108/108/105 120/121/105 119/120/105
f 108/108/106 109/109/106 121/122/106 120/121/106
f 109/109/107 110/110/107 122/123/107 121/122/107
f 110/110/108 111/111/108 123/124/108 122/123/108
f 111/111/109 112/112/109 124/125/109 123/124/109
f 112/112/110 113/113/110 125/126/110 124/125/110
f 113/113/111 114/114/111 126/127/111 125/126/111
f 114/114/112 115/115/112 127/128/112 126/127/112
f 115/115/113 116/116/113 128/129/113 127/128/113
f 116/116/114 105/117/114 117/130/114 128/129/114
f 117/119/115 118/118/115 130/131/115 129/132/115
f 118/118/116 119/120/116 131/133/116 130/131/116
f 119/120/117 120/121/117 132/134/117 131/133/117
f 120/121/118 121/122/118 133/135/118 132/134/118
f 121/122/119 122/123/119 134/136/119 133/135/119
f 122/123/120 123/124/120 135/137/120 134/136/120
f 123/124/121 124/125/121 136/138/121 135/137/121
f 124/125/122 125/126/122 137/139/122 136/138/122
f 125/126/123 126/127/123 138/140/123 137/139/123
f 126/127/124 127/128/124 139/141/124 138/140/124
f 127/128/125 128/129/125 140/142/125 139/141/125
f 128/129/126 117/130/126 129/143/126 140/142/126
f 10/6/127 9/5/127 141/144/127
f 11/9/128 10/6/128 141/145/128
f 12/11/129 11/9/129 141/146/129
f 13/13/130 12/11/130 141/147/130
f 14/15/131 13/13/131 141/148/131
f 15/17/132 14/15/132 141/149/132
f 16/19/133 15/17/133 141/150/133
f 17/21/134 16/19/134 141/151/134
f 18/23/135 17/21/135 141/152/135
f 19/25/136 18/23/136 141/153/136
f 20/27/137 19/25/137 141/154/137
f 9/29/138 20/27/138 141/155/138
f 129/132/139 130/131/139 142/156/139
f 130/131/140 131/133/140 142/157/140
f 131/133/141 132/134/141 142/158/141
f 132/134/142 133/135/142 142/159/142
f 133/135/143 134/136/143 142/160/143
f 134/136/144 135/137/144 142/161/144
f 135/137/145 136/138/145 142/162/145
f 136/138/146 137/139/146 142/163/146
f 137/139/147 138/140/147 142/164/147
f 138/140/148 139/141/148 142/165/148
f 139/141/149 140/142/149 142/166/149
f 140/142/150 129/143/150 142/167/150
f 148/1/151 147/2/151 149/3/151 150/4/151
f 144/1/152 146/4/152 145/3/152 143/2/152
f 144/1/153 143/2/153 147/2/153 148/1/153
f 143/2/154 145/3/154 149/3/154 147/2/154
f 145/3/155 146/4/155 150/4/155 149/3/155
f 146/4/156 144/1/156 148/1/156 150/4/156
f 156/1/157 158/4/157 157/3/157 155/2/157
f 152/1/158 151/2/158 153/3/158 154/4/158
f 152/1/159 156/1/159 155/2/159 151/2/159
f 151/2/160 155/2/160 157/3/160 153/3/160
f 153/3/161 157/3/161 158/4/161 154/4/161
f 154/4/162 158/4/162 156/1/162 152/1/162
f 164/1/163 166/4/163 165/3/163 163/2/163
f 160/1/164 159/2/164 161/3/164 162/4/164
f 160/1/165 164/1/165 163/2/165 159/2/165
f 159/2/166 163/2/166 165/3/166 161/3/166
f 161/3/167 165/3/167 166/4/167 162/4/167
f 162/4/168 166/4/168 164/1/168 160/1/168
f 172/1/169 174/4/169 173/3/169 171/2/169
f 168/1/170 167/2/170 169/3/170 170/4/170
f 168/1/171 172/1/171 171/2/171 167/2/171
f 167/2/172 171/2/172 173/3/172 169/3/172
f 169/3/173 173/3/173 174/4/173 170/4/173
f 170/4/174 174/4/174 172/1/174 168/1/174
f 180/1/152 182/4/152 181/3/152 179/2/152
f 176/1/151 175/2/151 177/3/151 178/4/151
f 176/1/175 180/1/175 179/2/175 175/2/175
f 175/2/176 179/2/176 181/3/176 177/3/176
f 177/3/177 181/3/177 182/4/177 178/4/177
f 178/4/178 182/4/178 180/1/178 176/1/178
f 188/1/179 190/4/179 189/3/179 187/2/179
f 184/1/180 183/2/180 185/3/180 186/4/180
f 184/1/181 188/1/181 187/2/181 183/2/181
f 183/2/182 187/2/182 189/3/182 185/3/182
f 185/3/183 189/3/183 190/4/183 186/4/183
f 186/4/184 190/4/184 188/1/184 184/1/184
f 196/1/2 195/2/2 197/3/2 198/4/2
f 192/1/1 194/4/1 193/3/1 191/2/1
f 192/1/185 191/2/185 195/2/185 196/1/185
f 191/2/186 193/3/186 197/3/186 195/2/186
f 193/3/187 194/4/187 198/4/187 197/3/187
f 194/4/188 192/1/188 196/1/188 198/4/188
f 204/1/180 203/2/180 205/3/180 206/4/180
f 200/1/179 202/4/179 201/3/179 199/2/179
f 200/1/189 199/2/189 203/2/189 204/1/189
f 199/2/190 201/3/190 205/3/190 203/2/190
f 201/3/191 202/4/191 206/4/191 205/3/191
f 202/4/192 200/1/192 204/1/192 206/4/192
f 212/1/158 211/2/158 213/3/158 214/4/158
f 208/1/157 210/4/157 209/3/157 207/2/157
f 208/1/193 207/2/193 211/2/193 212/1/193
f 207/2/194 209/3/194 213/3/194 211/2/194
f 209/3/195 210/4/195 214/4/195 213/3/195
f 210/4/196 208/1/196 212/1/196 214/4/196
f 220/1/164 219/2/164 221/3/164 222/4/164
f 216/1/163 218/4/163 217/3/163 215/2/163
f 216/1/197 215/2/197 219/2/197 220/1/197
f 215/2/198 217/3/198 221/3/198 219/2/198
f 217/3/199 218/4/199 222/4/199 221/3/199
f 218/4/200 216/1/200 220/1/200 222/4/200
f 228/1/170 227/2/170 229/3/170 230/4/170
f 224/1/169 226/4/169 225/3/169 223/2/169
f 224/1/201 223/2/201 227/2/201 228/1/201
f 223/2/202 225/3/202 229/3/202 227/2/202
f 225/3/203 226/4/203 230/4/203 229/3/203
f 226/4/204 224/1/204 228/1/204 230/4/204
