# Blender 4.3.2
# www.blender.org
mtllib Suegra.mtl
o Plane_003
v 0.711811 0.056556 -1.104646
v 1.078775 0.397733 -1.084389
v 0.875844 0.131852 -1.153539
v 0.711559 0.018304 -1.165289
v 0.566378 -0.376235 -1.086299
v 0.639043 -0.082314 -1.102327
v 0.648890 -0.089750 -1.152577
v 0.600706 -0.240168 -1.125685
v 0.666645 -0.103159 -1.005692
v 0.720925 0.011230 -0.993642
v 0.723608 0.047648 -1.050839
v 0.648262 -0.089277 -1.053365
v 0.616672 -0.252191 -1.032004
v 0.566146 -0.376529 -1.070027
v 0.875844 0.131852 -1.009256
v 1.079326 0.397316 -1.071324
v 0.616877 0.026209 -1.449746
v 0.778455 0.260328 -1.966093
v 0.639426 0.076297 -1.664712
v 0.536247 -0.017041 -1.453366
v 0.564296 -0.363670 -1.091552
v 0.587591 -0.091420 -1.310810
v 0.525617 -0.105871 -1.335328
v 0.534302 -0.240619 -1.205936
v 0.718067 -0.113094 -1.292405
v 0.758376 -0.013382 -1.396177
v 0.688661 0.017938 -1.437292
v 0.652544 -0.097337 -1.298542
v 0.658175 -0.250125 -1.181443
v 0.585343 -0.363530 -1.085451
v 0.793874 0.059965 -1.611776
v 0.795321 0.260777 -1.961641
v 0.299039 -0.101264 -1.229885
v -0.040609 -0.035013 -1.399390
v 0.156803 -0.114181 -1.245640
v 0.294640 -0.118434 -1.177720
v 0.543140 -0.321708 -1.106450
v 0.392654 -0.160744 -1.182826
v 0.374428 -0.163543 -1.147601
v 0.463850 -0.243371 -1.119531
v 0.410771 -0.196845 -1.250565
v 0.341252 -0.147202 -1.298040
v 0.310426 -0.118182 -1.267603
v 0.403568 -0.174788 -1.217147
v 0.484884 -0.269821 -1.185209
v 0.548042 -0.323942 -1.117739
v 0.198850 -0.131346 -1.346779
v -0.037001 -0.037060 -1.408549
v 0.485643 0.016839 -0.980350
v 0.254495 0.345205 -0.770718
v 0.425653 0.096430 -0.847380
v 0.530450 -0.016975 -0.937926
v 0.561779 -0.369396 -1.094114
v 0.528021 -0.109306 -1.028981
v 0.558979 -0.115535 -0.987164
v 0.568064 -0.250319 -1.039754
v 0.442297 -0.123033 -1.083683
v 0.400502 -0.019448 -1.057005
v 0.439920 0.011169 -1.012782
v 0.487268 -0.113629 -1.059330
v 0.492528 -0.256168 -1.098746
v 0.550143 -0.369369 -1.106041
v 0.320851 0.098700 -0.951828
v 0.244695 0.345106 -0.779870
v 0.684405 -0.128440 -0.861766
v 0.740089 -0.019767 -0.503969
v 0.765747 -0.136918 -0.740071
v 0.748883 -0.160183 -0.887960
v 0.602398 -0.364039 -1.095329
v 0.657030 -0.195955 -0.954725
v 0.714520 -0.209568 -0.961846
v 0.659927 -0.289766 -1.036996
v 0.546470 -0.207667 -0.922005
v 0.552501 -0.148691 -0.846055
v 0.622843 -0.132053 -0.845007
v 0.601011 -0.198010 -0.940094
v 0.552750 -0.292311 -1.009676
v 0.575529 -0.361729 -1.092277
v 0.600672 -0.120848 -0.708064
v 0.725143 -0.018761 -0.500844
vn -0.5885 0.7458 -0.3121
vn -0.5886 0.7458 -0.3119
vn -0.9668 0.2517 -0.0437
vn -0.9668 0.2518 -0.0438
vn -0.9668 0.2518 -0.0435
vn -0.9668 0.2519 -0.0435
vn -0.8790 0.4659 -0.1014
vn -0.8790 0.4658 -0.1014
vn -0.8892 0.4387 0.1299
vn -0.8892 0.4387 0.1298
vn -0.8771 0.4708 0.0954
vn -0.9545 0.2444 0.1710
vn -0.9646 0.2567 0.0612
vn -0.9645 0.2567 0.0612
vn -0.9646 0.2567 0.0610
vn -0.6169 0.7299 0.2945
vn -0.6170 0.7298 0.2945
vn -0.6169 0.7297 0.2949
vn -0.6884 0.7202 0.0859
vn -0.6884 0.7202 0.0861
vn -0.6416 0.7659 0.0421
vn -0.6419 0.7657 0.0420
vn -0.6415 0.7659 0.0420
vn -0.4491 0.8201 0.3545
vn -0.4493 0.8202 0.3542
vn -0.4493 0.8201 0.3542
vn -0.4664 0.8536 0.2318
vn -0.4665 0.8536 0.2318
vn 0.0328 0.9465 0.3209
vn 0.0327 0.9466 0.3207
vn 0.0327 0.9465 0.3209
vn -0.0437 0.9535 0.2982
vn -0.0438 0.9535 0.2982
vn 0.1224 0.8912 0.4368
vn 0.1224 0.8912 0.4367
vn -0.1707 0.8968 0.4081
vn -0.1707 0.8969 0.4081
vn -0.1707 0.8968 0.4082
vn -0.1706 0.8968 0.4082
vn 0.4069 0.8967 0.1742
vn 0.4070 0.8967 0.1742
vn 0.4067 0.8968 0.1743
vn 0.4068 0.8967 0.1743
vn 0.4068 0.8967 0.1744
vn 0.0007 0.9853 0.1709
vn 0.0007 0.9853 0.1710
vn 0.0006 0.9853 0.1709
vn 0.0008 0.9853 0.1708
vn 0.0009 0.9853 0.1708
vn -0.1532 0.9624 0.2244
vn -0.1532 0.9624 0.2243
vn 0.6459 0.7570 0.0990
vn 0.6459 0.7570 0.0991
vn 0.6459 0.7570 0.0988
vn 0.6460 0.7569 0.0988
vn 0.4072 0.9057 0.1181
vn 0.4071 0.9057 0.1181
vn 0.6386 0.7645 -0.0875
vn 0.6385 0.7646 -0.0873
vn 0.6386 0.7646 -0.0873
vn 0.6386 0.7645 -0.0876
vn 0.5876 0.8068 -0.0622
vn 0.5876 0.8068 -0.0624
vn 0.7967 0.5968 -0.0955
vn 0.7966 0.5970 -0.0954
vn 0.7966 0.5969 -0.0954
vn 0.7233 0.6905 0.0017
vn 0.7233 0.6905 0.0019
vn 0.4763 0.8247 -0.3049
vn 0.4760 0.8249 -0.3049
vn 0.4762 0.8248 -0.3049
vn 0.4762 0.8247 -0.3053
vn 0.4761 0.8247 -0.3053
vn 0.3260 0.9396 -0.1041
vn 0.3261 0.9396 -0.1043
vn 0.7941 0.6077 -0.0021
vn 0.7942 0.6076 -0.0020
vn 0.9099 0.3133 -0.2720
vn 0.9098 0.3133 -0.2720
vn 0.9100 0.3135 -0.2714
vn 0.9099 0.3135 -0.2715
vn 0.9099 0.3135 -0.2716
vn 0.8456 0.4956 -0.1984
vn 0.8456 0.4955 -0.1984
vn 0.6466 0.6245 -0.4380
vn 0.6467 0.6243 -0.4382
vn 0.6467 0.6244 -0.4380
vn 0.6728 0.6301 -0.3877
vn 0.6959 0.4409 -0.5669
vn 0.8295 0.3868 -0.4029
vn 0.8294 0.3867 -0.4031
vn 0.8295 0.3867 -0.4031
vn 0.0781 0.8995 -0.4299
vn 0.0781 0.8995 -0.4300
vn 0.0781 0.8993 -0.4302
vn 0.0782 0.8994 -0.4302
vn 0.4871 0.8242 -0.2888
vn 0.4870 0.8242 -0.2889
vn 0.4869 0.8243 -0.2888
vn 0.4870 0.8243 -0.2888
vn 0.5294 0.8410 -0.1117
vn 0.5296 0.8409 -0.1117
vn 0.5296 0.8409 -0.1118
vn 0.5294 0.8410 -0.1116
vn -0.0178 0.9183 -0.3955
vn -0.0173 0.9184 -0.3953
vn -0.0175 0.9184 -0.3954
vn -0.0176 0.9184 -0.3953
vn 0.1556 0.9493 -0.2730
vn 0.1556 0.9493 -0.2731
vn 0.1557 0.9493 -0.2730
vn -0.2820 0.9291 -0.2392
vn -0.2819 0.9292 -0.2391
vn -0.2820 0.9291 -0.2391
vn -0.2109 0.9492 -0.2337
vn -0.2110 0.9491 -0.2337
vn -0.4386 0.8414 -0.3159
vn -0.4386 0.8413 -0.3159
vn -0.2046 0.9073 -0.3673
vn -0.2046 0.9074 -0.3671
vn -0.4059 0.9124 -0.0530
vn -0.4059 0.9124 -0.0532
vn -0.4058 0.9124 -0.0531
vn -0.4058 0.9124 -0.0532
vn -0.1084 0.9881 -0.1089
vn -0.1085 0.9881 -0.1089
vt 0.687600 0.657900
vt 1.000000 0.657900
vt 1.000000 0.970300
vt 0.687600 1.000000
vt 0.000000 0.657900
vt 0.353500 0.657900
vt 0.353500 1.000000
vt 0.028200 1.000000
vt 0.353500 0.000000
vt 0.687600 0.000000
vt 0.687600 0.324600
vt 0.353500 0.324600
vt 0.028200 0.000000
vt 0.000000 0.324600
vt 1.000000 0.028200
vt 1.000000 0.324600
s 1
usemtl green_1
f 1/1/1 2/2/2 3/3/2
f 3/3/2 4/4/1 1/1/1
f 5/5/3 6/6/3 7/7/4
f 7/7/5 8/8/5 5/5/6
f 6/6/7 1/1/8 4/4/7
f 4/4/7 7/7/7 6/6/7
f 9/9/9 10/10/10 11/11/9
f 11/11/9 12/12/9 9/9/9
f 12/12/11 11/11/11 1/1/11
f 1/1/11 6/6/11 12/12/11
f 13/13/12 9/9/12 12/12/12
f 12/12/12 14/14/12 13/13/12
f 14/14/13 12/12/14 6/6/13
f 6/6/15 5/5/15 14/14/15
f 10/10/16 15/15/17 16/16/17
f 16/16/18 11/11/18 10/10/18
f 11/11/19 16/16/19 2/2/19
f 2/2/20 1/1/20 11/11/20
f 17/1/21 18/2/22 19/3/22
f 19/3/22 20/4/23 17/1/21
f 21/5/24 22/6/24 23/7/24
f 23/7/25 24/8/25 21/5/26
f 22/6/27 17/1/28 20/4/28
f 20/4/28 23/7/27 22/6/27
f 25/9/29 26/10/30 27/11/31
f 27/11/31 28/12/29 25/9/29
f 28/12/32 27/11/33 17/1/33
f 17/1/33 22/6/33 28/12/32
f 29/13/34 25/9/35 28/12/34
f 28/12/34 30/14/34 29/13/34
f 30/14/36 28/12/36 22/6/37
f 22/6/38 21/5/39 30/14/38
f 26/10/40 31/15/41 32/16/40
f 32/16/42 27/11/43 26/10/44
f 27/11/45 32/16/46 18/2/47
f 18/2/48 17/1/48 27/11/49
f 33/1/50 34/2/50 35/3/50
f 35/3/50 36/4/51 33/1/50
f 37/5/52 38/6/53 39/7/52
f 39/7/54 40/8/54 37/5/55
f 38/6/56 33/1/56 36/4/57
f 36/4/57 39/7/56 38/6/56
f 41/9/58 42/10/59 43/11/60
f 43/11/60 44/12/61 41/9/58
f 44/12/62 43/11/63 33/1/63
f 33/1/63 38/6/62 44/12/62
f 45/13/64 41/9/65 44/12/66
f 44/12/66 46/14/64 45/13/64
f 46/14/67 44/12/67 38/6/67
f 38/6/68 37/5/68 46/14/68
f 42/10/69 47/15/70 48/16/71
f 48/16/72 43/11/73 42/10/73
f 43/11/74 48/16/74 34/2/74
f 34/2/75 33/1/75 43/11/75
f 49/1/76 50/2/77 51/3/77
f 51/3/77 52/4/76 49/1/76
f 53/5/78 54/6/79 55/7/79
f 55/7/80 56/8/81 53/5/82
f 54/6/83 49/1/84 52/4/84
f 52/4/84 55/7/84 54/6/83
f 57/9/85 58/10/86 59/11/87
f 59/11/87 60/12/87 57/9/85
f 60/12/88 59/11/88 49/1/88
f 49/1/88 54/6/88 60/12/88
f 61/13/89 57/9/89 60/12/89
f 60/12/89 62/14/89 61/13/89
f 62/14/90 60/12/90 54/6/90
f 54/6/91 53/5/92 62/14/92
f 58/10/93 63/15/94 64/16/94
f 64/16/95 59/11/96 58/10/95
f 59/11/97 64/16/98 50/2/97
f 50/2/99 49/1/99 59/11/100
f 65/1/101 66/2/102 67/3/103
f 67/3/103 68/4/104 65/1/101
f 69/5/105 70/6/105 71/7/105
f 71/7/106 72/8/107 69/5/108
f 70/6/109 65/1/110 68/4/110
f 68/4/110 71/7/111 70/6/109
f 73/9/112 74/10/113 75/11/114
f 75/11/114 76/12/114 73/9/112
f 76/12/115 75/11/115 65/1/115
f 65/1/115 70/6/116 76/12/115
f 77/13/117 73/9/118 76/12/118
f 76/12/118 78/14/117 77/13/117
f 78/14/119 76/12/119 70/6/119
f 70/6/120 69/5/120 78/14/120
f 74/10/121 79/15/121 80/16/121
f 80/16/122 75/11/123 74/10/124
f 75/11/125 80/16/125 66/2/125
f 66/2/126 65/1/126 75/11/126
